{
  "source": "C:\\Users\\Peter\\Desktop\\stuff\\MIUN\\quantitative_research\\video_compression\\videos\\BVI-HD\\BVI-HD_CDVL_videos\\ORIG\\Bookcase_1920x1080_60fps.mp4",
  "output": "C:\\Users\\Peter\\Desktop\\stuff\\MIUN\\quantitative_research\\video_compression\\compressed_videos\\BVI-HD\\h264\\1\\Bookcase_1920x1080_60fps_h264.mp4",
  "codec": "h264",
  "ok": "Input #0, mov,mp4,m4a,3gp,3g2,mj2, from 'C:\\Users\\Peter\\Desktop\\stuff\\MIUN\\quantitative_research\\video_compression\\videos\\BVI-HD\\BVI-HD_CDVL_videos\\ORIG\\Bookcase_1920x1080_60fps.mp4':\n  Metadata:\n    major_brand     : isom\n    minor_version   : 512\n    compatible_brands: isomiso2avc1mp41\n    encoder         : Lavf54.28.101\n  Duration: 00:00:05.00, start: 0.000000, bitrate: 336321 kb/s\n  Stream #0:0[0x1](und): Video: h264 (High 4:4:4 Predictive) (avc1 / 0x31637661), yuv420p(progressive), 1920x1080, 336316 kb/s, 60 fps, 60 tbr, 60 tbn (default)\n    Metadata:\n      handler_name    : VideoHandler\n      vendor_id       : [0][0][0][0]\n[out#0/mp4 @ 00000242ea0418c0] Codec AVOption b:a (set bitrate (in bits/s)) has not been used for any stream. The most likely reason is either wrong type (e.g. a video option with no video streams) or that it is a private option of some decoder which was not actually used for any stream.\nStream mapping:\n  Stream #0:0 -> #0:0 (h264 (native) -> h264 (libx264))\nPress [q] to stop, [?] for help\n[libx264 @ 00000242ea03cb80] using cpu capabilities: MMX2 SSE2Fast SSSE3 SSE4.2 AVX FMA3 BMI2 AVX2\n[libx264 @ 00000242ea03cb80] profile High, level 5.0, 4:2:0, 8-bit\n[libx264 @ 00000242ea03cb80] 264 - core 165 r3222 b35605a - H.264/MPEG-4 AVC codec - Copyleft 2003-2025 - http://www.videolan.org/x264.html - options: cabac=1 ref=5 deblock=1:0:0 analyse=0x3:0x113 me=hex subme=8 psy=1 psy_rd=1.00:0.00 mixed_ref=1 me_range=16 chroma_me=1 trellis=2 8x8dct=1 cqm=0 deadzone=21,11 fast_pskip=1 chroma_qp_offset=-2 threads=18 lookahead_threads=3 sliced_threads=0 nr=0 decimate=1 interlaced=0 bluray_compat=0 constrained_intra=0 bframes=3 b_pyramid=2 b_adapt=1 b_bias=0 direct=3 weightb=1 open_gop=0 weightp=2 keyint=250 keyint_min=25 scenecut=40 intra_refresh=0 rc_lookahead=50 rc=cbr mbtree=1 bitrate=1000 ratetol=1.0 qcomp=0.60 qpmin=0 qpmax=69 qpstep=4 vbv_maxrate=1000 vbv_bufsize=1000 nal_hrd=none filler=0 ip_ratio=1.40 aq=1:1.00\nOutput #0, mp4, to 'C:\\Users\\Peter\\Desktop\\stuff\\MIUN\\quantitative_research\\video_compression\\compressed_videos\\BVI-HD\\h264\\1\\Bookcase_1920x1080_60fps_h264.mp4':\n  Metadata:\n    major_brand     : isom\n    minor_version   : 512\n    compatible_brands: isomiso2avc1mp41\n    encoder         : Lavf62.3.100\n  Stream #0:0(und): Video: h264 (avc1 / 0x31637661), yuv420p(tv, progressive), 1920x1080, q=2-31, 1000 kb/s, 60 fps, 15360 tbn (default)\n    Metadata:\n      encoder         : Lavc62.11.100 libx264\n      handler_name    : VideoHandler\n      vendor_id       : [0][0][0][0]\n    Side data:\n      cpb: bitrate max/min/avg: 1000000/0/1000000 buffer size: 1000000 vbv_delay: N/A\nframe=    0 fps=0.0 q=0.0 size=       0KiB time=N/A bitrate=N/A speed=N/A elapsed=0:00:00.51    \nframe=    0 fps=0.0 q=0.0 size=       0KiB time=N/A bitrate=N/A speed=N/A elapsed=0:00:01.06    \nframe=   27 fps= 17 q=45.0 size=       0KiB time=00:00:00.41 bitrate=   0.9kbits/s speed=0.26x elapsed=0:00:01.60    \nframe=   66 fps= 30 q=48.0 size=       0KiB time=00:00:01.06 bitrate=   0.4kbits/s speed=0.485x elapsed=0:00:02.19    \nframe=  102 fps= 37 q=47.0 size=       0KiB time=00:00:01.60 bitrate=   0.2kbits/s speed=0.583x elapsed=0:00:02.74    \nframe=  138 fps= 42 q=45.0 size=       0KiB time=00:00:02.26 bitrate=   0.2kbits/s speed=0.683x elapsed=0:00:03.31    \nframe=  174 fps= 45 q=45.0 size=     256KiB time=00:00:02.86 bitrate= 731.7kbits/s speed=0.746x elapsed=0:00:03.84    \nframe=  207 fps= 47 q=49.0 size=     256KiB time=00:00:03.41 bitrate= 613.9kbits/s speed=0.778x elapsed=0:00:04.39    \nframe=  233 fps= 47 q=48.0 size=     256KiB time=00:00:03.85 bitrate= 544.8kbits/s speed=0.781x elapsed=0:00:04.93    \nframe=  278 fps= 51 q=57.0 size=     256KiB time=00:00:04.60 bitrate= 456.0kbits/s speed=0.844x elapsed=0:00:05.45    \n[mp4 @ 00000242ea04d700] Starting second pass: moving the moov atom to the beginning of the file\n[out#0/mp4 @ 00000242ea0418c0] video:557KiB audio:0KiB subtitle:0KiB other streams:0KiB global headers:0KiB muxing overhead: 0.743552%\nframe=  300 fps= 53 q=-1.0 Lsize=     561KiB time=00:00:04.96 bitrate= 925.1kbits/s speed=0.883x elapsed=0:00:05.62    \n[libx264 @ 00000242ea03cb80] frame I:2     Avg QP:42.70  size: 16666\n[libx264 @ 00000242ea03cb80] frame P:93    Avg QP:46.04  size:  3662\n[libx264 @ 00000242ea03cb80] frame B:205   Avg QP:48.20  size:   953\n[libx264 @ 00000242ea03cb80] consecutive B-frames:  2.3% 11.3% 25.0% 61.3%\n[libx264 @ 00000242ea03cb80] mb I  I16..4: 53.5% 46.3%  0.2%\n[libx264 @ 00000242ea03cb80] mb P  I16..4: 14.8%  3.8%  0.0%  P16..4: 10.1%  0.3%  0.9%  0.0%  0.0%    skip:70.1%\n[libx264 @ 00000242ea03cb80] mb B  I16..4:  0.1%  0.1%  0.0%  B16..8: 13.1%  0.1%  0.0%  direct: 0.1%  skip:86.6%  L0:33.8% L1:66.1% BI: 0.1%\n[libx264 @ 00000242ea03cb80] 8x8 transform intra:23.4% inter:97.9%\n[libx264 @ 00000242ea03cb80] direct mvs  spatial:95.6% temporal:4.4%\n[libx264 @ 00000242ea03cb80] coded y,uvDC,uvAC intra: 2.7% 29.1% 0.4% inter: 0.2% 0.8% 0.0%\n[libx264 @ 00000242ea03cb80] i16 v,h,dc,p: 64% 23%  3% 10%\n[libx264 @ 00000242ea03cb80] i8 v,h,dc,ddl,ddr,vr,hd,vl,hu: 22% 11% 55%  2%  1%  2%  2%  3%  1%\n[libx264 @ 00000242ea03cb80] i4 v,h,dc,ddl,ddr,vr,hd,vl,hu: 19% 17% 21%  3% 11%  7% 15%  5%  3%\n[libx264 @ 00000242ea03cb80] i8c dc,h,v,p: 75% 12% 11%  2%\n[libx264 @ 00000242ea03cb80] Weighted P-Frames: Y:0.0% UV:0.0%\n[libx264 @ 00000242ea03cb80] ref P L0: 85.0%  3.4%  6.8%  2.4%  2.2%  0.1%\n[libx264 @ 00000242ea03cb80] ref B L0: 87.6%  8.7%  2.9%  0.8%\n[libx264 @ 00000242ea03cb80] ref B L1: 97.7%  2.3%\n[libx264 @ 00000242ea03cb80] kb/s:910.94\n",
  "seconds": 5.832391738891602,
  "probe_out": {}
}